<?xml version="1.0" encoding="UTF-8"?>
<!DOCTYPE svg PUBLIC "-//W3C//DTD SVG 1.1//EN" "http://www.w3.org/Graphics/SVG/1.1/DTD/svg11.dtd">
<svg xmlns="http://www.w3.org/2000/svg" version="1.1" width="1086px" height="602px" style="shape-rendering:geometricPrecision; text-rendering:geometricPrecision; image-rendering:optimizeQuality; fill-rule:evenodd; clip-rule:evenodd" xmlns:xlink="http://www.w3.org/1999/xlink">
<g><path style="opacity:1" fill="#fefefe" d="M -0.5,-0.5 C 361.5,-0.5 723.5,-0.5 1085.5,-0.5C 1085.5,200.167 1085.5,400.833 1085.5,601.5C 723.5,601.5 361.5,601.5 -0.5,601.5C -0.5,400.833 -0.5,200.167 -0.5,-0.5 Z"/></g>
<g><path style="opacity:1" fill="#3a83f6" d="M 535.5,161.5 C 508.698,188.969 481.698,215.969 454.5,242.5C 418.458,265.918 381.458,267.418 343.5,247C 338.692,243.692 334.025,240.192 329.5,236.5C 305.29,211.824 280.79,187.491 256,163.5C 255.536,162.906 255.369,162.239 255.5,161.5C 281.993,134.173 308.993,107.34 336.5,81C 367.953,60.0999 401.287,56.7665 436.5,71C 445.638,75.1499 453.971,80.4832 461.5,87C 486.368,111.701 511.035,136.535 535.5,161.5 Z"/></g>
<g><path style="opacity:1" fill="#87e9f9" d="M 1019.5,240.5 C 977.506,268.772 935.839,268.272 894.5,239C 868.965,213.298 843.299,187.798 817.5,162.5C 817.5,162.167 817.5,161.833 817.5,161.5C 841.605,136.895 865.938,112.395 890.5,88C 922.505,61.1656 958.171,55.1656 997.5,70C 1041.99,92.532 1061.49,128.699 1056,178.5C 1051.52,203.787 1039.35,224.454 1019.5,240.5 Z"/></g>
<g><path style="opacity:1" fill="#52b3f8" d="M 817.5,161.5 C 817.5,161.833 817.5,162.167 817.5,162.5C 790.366,189.303 763.366,215.969 736.5,242.5C 698.361,267.339 659.361,267.839 619.5,244C 591.279,216.945 563.612,189.445 536.5,161.5C 562.66,134.507 589.327,108.007 616.5,82C 644.942,61.8145 675.942,56.8145 709.5,67C 719.206,70.3886 728.206,75.0553 736.5,81C 764.034,107.367 791.034,134.201 817.5,161.5 Z"/></g>
<g><path style="opacity:1" fill="#112fed" d="M 254.5,161.5 C 229.954,186.546 205.287,211.38 180.5,236C 147.351,262.52 111.018,267.853 71.5,252C 64.609,248.062 57.9424,243.895 51.5,239.5C 23.5701,215.277 11.4034,184.61 15,147.5C 24.6341,100.199 53.1341,72.0323 100.5,63C 132.88,59.571 160.88,68.9044 184.5,91C 208.035,114.368 231.368,137.868 254.5,161.5 Z"/></g>
<g><path style="opacity:1" fill="#265bf5" d="M 254.5,161.5 C 254.833,161.5 255.167,161.5 255.5,161.5C 255.369,162.239 255.536,162.906 256,163.5C 280.79,187.491 305.29,211.824 329.5,236.5C 334.025,240.192 338.692,243.692 343.5,247C 381.458,267.418 418.458,265.918 454.5,242.5C 434.833,262.5 415.167,282.5 395.5,302.5C 370.035,327.465 344.701,352.632 319.5,378C 288.646,401.834 254.646,407.501 217.5,395C 209.082,391.045 201.082,386.545 193.5,381.5C 145.833,334.5 98.5,287.167 51.5,239.5C 57.9424,243.895 64.609,248.062 71.5,252C 111.018,267.853 147.351,262.52 180.5,236C 205.287,211.38 229.954,186.546 254.5,161.5 Z"/></g>
<g><path style="opacity:1" fill="#459bf7" d="M 535.5,161.5 C 535.833,161.5 536.167,161.5 536.5,161.5C 563.612,189.445 591.279,216.945 619.5,244C 659.361,267.839 698.361,267.339 736.5,242.5C 716.833,262.5 697.167,282.5 677.5,302.5C 676.317,303.504 674.984,304.338 673.5,305C 658.305,320.107 643.305,335.44 628.5,351C 624.509,353.492 621.175,356.658 618.5,360.5C 617.675,361.386 616.675,361.719 615.5,361.5C 609.023,370.655 601.357,378.988 592.5,386.5C 592.44,385.957 592.107,385.624 591.5,385.5C 560.986,403.679 528.986,406.513 495.5,394C 485.344,388.837 476.01,382.504 467.5,375C 443.271,350.938 419.271,326.772 395.5,302.5C 415.167,282.5 434.833,262.5 454.5,242.5C 481.698,215.969 508.698,188.969 535.5,161.5 Z"/></g>
<g><path style="opacity:1" fill="#5fcff9" d="M 817.5,162.5 C 843.299,187.798 868.965,213.298 894.5,239C 935.839,268.272 977.506,268.772 1019.5,240.5C 973.833,286.833 927.833,332.833 881.5,378.5C 847.606,404.513 810.94,408.68 771.5,391C 765.521,387.03 759.521,383.03 753.5,379C 727.992,353.659 702.659,328.159 677.5,302.5C 697.167,282.5 716.833,262.5 736.5,242.5C 763.366,215.969 790.366,189.303 817.5,162.5 Z"/></g>
<g><path style="opacity:1" fill="#3a83f6" d="M 395.5,302.5 C 419.271,326.772 443.271,350.938 467.5,375C 476.01,382.504 485.344,388.837 495.5,394C 528.986,406.513 560.986,403.679 591.5,385.5C 592.107,385.624 592.44,385.957 592.5,386.5C 573.779,405.887 554.779,424.887 535.5,443.5C 511.035,468.465 486.368,493.299 461.5,518C 424.955,546.475 385.955,550.142 344.5,529C 339.833,525.667 335.167,522.333 330.5,519C 284.632,473.299 238.965,427.465 193.5,381.5C 201.082,386.545 209.082,391.045 217.5,395C 254.646,407.501 288.646,401.834 319.5,378C 344.701,352.632 370.035,327.465 395.5,302.5 Z"/></g>
<g><path style="opacity:1" fill="#52b3f8" d="M 677.5,302.5 C 702.659,328.159 727.992,353.659 753.5,379C 759.521,383.03 765.521,387.03 771.5,391C 810.94,408.68 847.606,404.513 881.5,378.5C 832.645,428.522 782.978,477.688 732.5,526C 704.236,543.703 674.236,547.369 642.5,537C 630.875,532.191 620.208,525.858 610.5,518C 586.277,492.276 561.277,467.443 535.5,443.5C 554.779,424.887 573.779,405.887 592.5,386.5C 601.357,378.988 609.023,370.655 615.5,361.5C 616.675,361.719 617.675,361.386 618.5,360.5C 621.175,356.658 624.509,353.492 628.5,351C 643.305,335.44 658.305,320.107 673.5,305C 674.984,304.338 676.317,303.504 677.5,302.5 Z"/></g>
</svg>
